<svg xmlns="http://www.w3.org/2000/svg" xmlns:xlink="http://www.w3.org/1999/xlink" width="1920" zoomAndPan="magnify" viewBox="0 0 1440 374.999991" height="500" preserveAspectRatio="xMidYMid meet" version="1.0"><defs><g/></defs><g fill="#fdfdfd" fill-opacity="1"><g transform="translate(0.757158, 291.042645)"><g><path d="M 119.703125 -56.421875 L 119.703125 0 L 94.625 0 C 48.457031 0 25.375 -22.984375 25.375 -68.953125 L 25.375 -113.125 L 4.484375 -113.125 L 4.484375 -168.359375 L 25.375 -168.359375 L 25.375 -208.953125 L 91.640625 -208.953125 L 91.640625 -168.359375 L 119.09375 -168.359375 L 119.09375 -113.125 L 91.640625 -113.125 L 91.640625 -67.765625 C 91.640625 -63.785156 92.582031 -60.898438 94.46875 -59.109375 C 96.363281 -57.316406 99.5 -56.421875 103.875 -56.421875 Z M 119.703125 -56.421875 "/></g></g></g><g fill="#fdfdfd" fill-opacity="1"><g transform="translate(147.914835, 291.042645)"><g><path d="M 81.1875 -137.3125 C 87.957031 -147.0625 96.21875 -154.867188 105.96875 -160.734375 C 115.71875 -166.609375 125.867188 -169.546875 136.421875 -169.546875 L 136.421875 -98.796875 L 117.609375 -98.796875 C 105.066406 -98.796875 95.859375 -96.609375 89.984375 -92.234375 C 84.117188 -87.859375 81.1875 -80.097656 81.1875 -68.953125 L 81.1875 0 L 14.921875 0 L 14.921875 -168.359375 L 81.1875 -168.359375 Z M 81.1875 -137.3125 "/></g></g></g><g fill="#fdfdfd" fill-opacity="1"><g transform="translate(304.325878, 291.042645)"><g><path d="M 5.96875 -84.171875 C 5.96875 -101.890625 9 -117.265625 15.0625 -130.296875 C 21.132812 -143.328125 29.441406 -153.273438 39.984375 -160.140625 C 50.535156 -167.003906 62.378906 -170.4375 75.515625 -170.4375 C 86.460938 -170.4375 95.914062 -168.195312 103.875 -163.71875 C 111.832031 -159.25 117.90625 -153.132812 122.09375 -145.375 L 122.09375 -168.359375 L 188.0625 -168.359375 L 188.0625 0 L 122.09375 0 L 122.09375 -22.984375 C 117.90625 -15.222656 111.832031 -9.101562 103.875 -4.625 C 95.914062 -0.144531 86.460938 2.09375 75.515625 2.09375 C 62.378906 2.09375 50.535156 -1.335938 39.984375 -8.203125 C 29.441406 -15.066406 21.132812 -25.015625 15.0625 -38.046875 C 9 -51.085938 5.96875 -66.460938 5.96875 -84.171875 Z M 122.09375 -84.171875 C 122.09375 -93.128906 119.800781 -100.09375 115.21875 -105.0625 C 110.644531 -110.039062 104.773438 -112.53125 97.609375 -112.53125 C 90.441406 -112.53125 84.566406 -110.039062 79.984375 -105.0625 C 75.410156 -100.09375 73.125 -93.128906 73.125 -84.171875 C 73.125 -75.222656 75.410156 -68.257812 79.984375 -63.28125 C 84.566406 -58.300781 90.441406 -55.8125 97.609375 -55.8125 C 104.773438 -55.8125 110.644531 -58.300781 115.21875 -63.28125 C 119.800781 -68.257812 122.09375 -75.222656 122.09375 -84.171875 Z M 122.09375 -84.171875 "/></g></g></g><g fill="#fdfdfd" fill-opacity="1"><g transform="translate(524.315968, 291.042645)"><g><path d="M 5.96875 -84.171875 C 5.96875 -101.679688 9.597656 -116.953125 16.859375 -129.984375 C 24.128906 -143.023438 34.28125 -153.023438 47.3125 -159.984375 C 60.34375 -166.953125 75.21875 -170.4375 91.9375 -170.4375 C 113.820312 -170.4375 132.273438 -164.265625 147.296875 -151.921875 C 162.328125 -139.585938 171.832031 -122.476562 175.8125 -100.59375 L 105.671875 -100.59375 C 103.078125 -109.351562 98.003906 -113.734375 90.453125 -113.734375 C 85.078125 -113.734375 80.84375 -111.242188 77.75 -106.265625 C 74.664062 -101.285156 73.125 -93.921875 73.125 -84.171875 C 73.125 -74.421875 74.664062 -67.054688 77.75 -62.078125 C 80.84375 -57.109375 85.078125 -54.625 90.453125 -54.625 C 98.003906 -54.625 103.078125 -59.003906 105.671875 -67.765625 L 175.8125 -67.765625 C 171.832031 -45.867188 162.328125 -28.75 147.296875 -16.40625 C 132.273438 -4.070312 113.820312 2.09375 91.9375 2.09375 C 75.21875 2.09375 60.34375 -1.390625 47.3125 -8.359375 C 34.28125 -15.328125 24.128906 -25.328125 16.859375 -38.359375 C 9.597656 -51.390625 5.96875 -66.660156 5.96875 -84.171875 Z M 5.96875 -84.171875 "/></g></g></g><g fill="#fdfdfd" fill-opacity="1"><g transform="translate(723.113058, 291.042645)"><g><path d="M 119.703125 -56.421875 L 119.703125 0 L 94.625 0 C 48.457031 0 25.375 -22.984375 25.375 -68.953125 L 25.375 -113.125 L 4.484375 -113.125 L 4.484375 -168.359375 L 25.375 -168.359375 L 25.375 -208.953125 L 91.640625 -208.953125 L 91.640625 -168.359375 L 119.09375 -168.359375 L 119.09375 -113.125 L 91.640625 -113.125 L 91.640625 -67.765625 C 91.640625 -63.785156 92.582031 -60.898438 94.46875 -59.109375 C 96.363281 -57.316406 99.5 -56.421875 103.875 -56.421875 Z M 119.703125 -56.421875 "/></g></g></g><g fill="#fdfdfd" fill-opacity="1"><g transform="translate(870.270751, 291.042645)"><g><path d="M 48.359375 -181.78125 C 36.816406 -181.78125 27.5625 -184.863281 20.59375 -191.03125 C 13.632812 -197.207031 10.15625 -204.972656 10.15625 -214.328125 C 10.15625 -223.878906 13.632812 -231.785156 20.59375 -238.046875 C 27.5625 -244.316406 36.816406 -247.453125 48.359375 -247.453125 C 59.703125 -247.453125 68.851562 -244.316406 75.8125 -238.046875 C 82.78125 -231.785156 86.265625 -223.878906 86.265625 -214.328125 C 86.265625 -204.972656 82.78125 -197.207031 75.8125 -191.03125 C 68.851562 -184.863281 59.703125 -181.78125 48.359375 -181.78125 Z M 81.1875 -168.359375 L 81.1875 0 L 14.921875 0 L 14.921875 -168.359375 Z M 81.1875 -168.359375 "/></g></g></g><g fill="#fdfdfd" fill-opacity="1"><g transform="translate(983.415467, 291.042645)"><g/></g></g><g fill="#fdfdfd" fill-opacity="1"><g transform="translate(1051.173908, 291.042645)"><g/></g></g><g fill="#fdfdfd" fill-opacity="1"><g transform="translate(1118.947903, 291.042645)"><g><path d="M 132.828125 -169.546875 C 152.128906 -169.546875 167.203125 -163.078125 178.046875 -150.140625 C 188.898438 -137.210938 194.328125 -119.703125 194.328125 -97.609375 L 194.328125 0 L 128.359375 0 L 128.359375 -89.25 C 128.359375 -97.207031 126.21875 -103.523438 121.9375 -108.203125 C 117.65625 -112.878906 111.9375 -115.21875 104.78125 -115.21875 C 97.414062 -115.21875 91.640625 -112.878906 87.453125 -108.203125 C 83.273438 -103.523438 81.1875 -97.207031 81.1875 -89.25 L 81.1875 0 L 14.921875 0 L 14.921875 -168.359375 L 81.1875 -168.359375 L 81.1875 -142.6875 C 86.363281 -150.644531 93.28125 -157.109375 101.9375 -162.078125 C 110.59375 -167.054688 120.890625 -169.546875 132.828125 -169.546875 Z M 132.828125 -169.546875 "/></g></g></g><g fill="#fdfdfd" fill-opacity="1"><g transform="translate(1344.012389, 291.042645)"><g><path d="M 47.765625 2.390625 C 36.222656 2.390625 26.96875 -0.691406 20 -6.859375 C 13.03125 -13.035156 9.546875 -20.800781 9.546875 -30.15625 C 9.546875 -39.695312 13.03125 -47.601562 20 -53.875 C 26.96875 -60.144531 36.222656 -63.28125 47.765625 -63.28125 C 59.109375 -63.28125 68.257812 -60.144531 75.21875 -53.875 C 82.1875 -47.601562 85.671875 -39.695312 85.671875 -30.15625 C 85.671875 -20.800781 82.1875 -13.035156 75.21875 -6.859375 C 68.257812 -0.691406 59.109375 2.390625 47.765625 2.390625 Z M 47.765625 2.390625 "/></g></g></g><path fill="#fdfdfd" d="M 1031.160156 278.761719 C 1031.195312 278.382812 1031.242188 278.003906 1031.261719 277.625 C 1031.636719 271.84375 1031.539062 265.007812 1030.15625 258.289062 L 1030.15625 258.238281 C 1026.550781 261.699219 1022.714844 265.238281 1018.5625 268.929688 C 1018.429688 260.117188 1015.84375 252.984375 1010.988281 248.128906 L 1010.988281 248.113281 C 1010.96875 248.113281 1010.96875 248.113281 1010.96875 248.113281 C 1006.113281 243.253906 998.980469 240.667969 990.171875 240.535156 C 993.859375 236.386719 997.398438 232.546875 1000.859375 228.941406 L 1000.808594 228.941406 C 994.089844 227.558594 987.253906 227.441406 981.457031 227.835938 C 981.097656 227.855469 980.714844 227.902344 980.339844 227.9375 C 997.714844 210.578125 1012.601562 211.285156 1017.902344 212.273438 C 1060.476562 173.589844 1080.519531 178.578125 1080.519531 178.578125 C 1080.519531 178.578125 1085.507812 198.621094 1046.824219 241.195312 C 1047.8125 246.496094 1048.519531 261.386719 1031.160156 278.761719 Z M 1098.832031 151.011719 C 1067.390625 124 1020.257812 123.921875 988.753906 150.847656 C 957.480469 177.558594 950.84375 221.183594 968.808594 255.109375 C 974.261719 265.421875 988.835938 266.128906 995.570312 256.59375 L 995.589844 256.574219 L 987.074219 248.078125 C 987.089844 248.0625 987.074219 248.0625 987.089844 248.0625 C 992.757812 247.617188 1000.84375 248.078125 1005.929688 253.167969 C 1011.019531 258.257812 1011.480469 266.34375 1011.035156 272.007812 C 1011.035156 272.007812 1011.019531 272.007812 1011.019531 272.023438 L 1002.523438 263.511719 C 992.902344 270.3125 993.792969 284.9375 1004.21875 290.402344 C 1036.199219 307.234375 1076.765625 302.210938 1103.625 275.351562 C 1138.207031 240.765625 1136.609375 183.503906 1098.832031 151.011719 " fill-opacity="1" fill-rule="nonzero"/><path fill="#fdfdfd" d="M 1051.515625 217.035156 C 1048.914062 219.636719 1044.683594 219.636719 1042.0625 217.035156 C 1039.460938 214.414062 1039.460938 210.183594 1042.0625 207.582031 C 1044.683594 204.964844 1048.914062 204.964844 1051.515625 207.582031 C 1054.132812 210.183594 1054.132812 214.414062 1051.515625 217.035156 " fill-opacity="1" fill-rule="nonzero"/></svg>